<?xml version="1.0" ?><svg height="24" id="svg3171" version="1.1" viewBox="0 0 6.3499999 6.3500002" width="24" xmlns="http://www.w3.org/2000/svg" xmlns:cc="http://creativecommons.org/ns#" xmlns:dc="http://purl.org/dc/elements/1.1/" xmlns:inkscape="http://www.inkscape.org/namespaces/inkscape" xmlns:rdf="http://www.w3.org/1999/02/22-rdf-syntax-ns#" xmlns:sodipodi="http://sodipodi.sourceforge.net/DTD/sodipodi-0.dtd" xmlns:svg="http://www.w3.org/2000/svg"><defs id="defs3165"/><g id="layer1"><g id="g2139" style="stroke-width:0.542258;stroke-miterlimit:4;stroke-dasharray:none" transform="matrix(1.0001949,0,0,0.95211398,-1.0311481e-4,-10.050708)"><path d="M 6.8789062,1.9980469 C 6.4082142,2.0001808 6.0272906,2.424376 6.0253906,2.9472656 L 6,11.513672 c -8.7e-6,0.0025 -8.7e-6,0.0053 0,0.0078 0,0.708801 0.4105535,1.172036 0.8027344,1.484375 1.5047232,1.016937 3.1988256,1.371012 5.2148436,1.369141 1.984762,0.0019 3.667297,-0.48119 5.189453,-1.392578 0.390513,-0.314501 0.796874,-0.773605 0.796875,-1.48241 V 2.953125 c 0.0018,-0.5283378 -0.38378,-0.9565355 -0.859375,-0.9550781 z M 2.9960938,4 A 1.0001973,1.0001001 0 0 0 2,4.9960938 v 4 a 1.0001973,1.0001001 0 0 0 0.6875,0.953125 L 4.9980469,10.716797 V 8.6113281 L 4.0019531,8.28125 V 6 H 4.9980469 V 4 Z M 19.001953,4 v 2 h 0.996094 V 8.28125 L 19.001953,8.6113281 V 10.716797 L 21.3125,9.9492188 A 1.0001973,1.0001001 0 0 0 22,8.9960938 v -4 A 1.0001973,1.0001001 0 0 0 21.003906,4 Z m -4,11.035156 c -0.635321,0.12307 -1.305381,0.212965 -2,0.25586 v 0.99414 H 11 v -0.99414 C 10.303313,15.248301 9.6343378,15.159758 9,15.039062 v 1.246094 H 8.0175781 c -0.3933898,-8.6e-4 -0.7526667,0.205841 -0.9257812,0.533203 l -1.9902344,3.814453 c -0.3267471,0.632113 0.1694925,1.364166 0.9257813,1.365235 H 17.976562 c 0.75629,-0.0011 1.25253,-0.733122 0.925782,-1.365235 l -1.998047,-3.814453 c -0.173114,-0.327395 -0.532392,-0.534063 -0.925781,-0.533203 h -0.976563 z" id="path2073" style="color:#636128;font-style:normal;font-variant:normal;font-weight:normal;font-stretch:normal;font-size:medium;line-height:normal;font-family:sans-serif;font-variant-ligatures:normal;font-variant-position:normal;font-variant-caps:normal;font-variant-numeric:normal;font-variant-alternates:normal;font-variant-east-asian:normal;font-feature-settings:normal;font-variation-settings:normal;text-indent:0;text-align:start;text-decoration:none;text-decoration-line:none;text-decoration-style:solid;text-decoration-color:#636128;letter-spacing:normal;word-spacing:normal;text-transform:none;writing-mode:lr-tb;direction:ltr;text-orientation:mixed;dominant-baseline:auto;baseline-shift:baseline;text-anchor:start;white-space:normal;shape-padding:0;shape-margin:0;inline-size:0;clip-rule:nonzero;display:inline;overflow:visible;visibility:visible;opacity:1;isolation:auto;mix-blend-mode:normal;color-interpolation:sRGB;color-interpolation-filters:linearRGB;solid-color:#636128;solid-opacity:1;vector-effect:none;fill:#636128;fill-opacity:1;fill-rule:nonzero;stroke:none;stroke-width:2;stroke-linecap:round;stroke-linejoin:round;stroke-miterlimit:4;stroke-dasharray:none;stroke-dashoffset:0;stroke-opacity:1;color-rendering:auto;image-rendering:auto;shape-rendering:auto;text-rendering:auto;enable-background:accumulate;stop-color:#636128;stop-opacity:1" transform="matrix(0.26453178,0,0,0.2778904,1.0307279e-4,10.556746)"/></g></g></svg>